# xmcd CD database file
#
# Track frame offsets:
#	150
#	16050
#	34425
#	51075
#	54675
#	62175
#	74175
#	90600
#	110325
#	122850
#	146700
#	155700
#	167175
#	175425
#	176925
#	183399
#	221724
#
# Disc length: 3096 seconds
#
# Revision: 0
# Processed by: cddbd v1.5.1PL0 Copyright (c) Steve Scherf et al.
# Submitted via: CDex 1.51
#
DISCID=100c1611
DTITLE=Jacques Demierre - Guillevic   a v e c
DYEAR=1997
DGENRE=Jazz
TTITLE0=01
TTITLE1=02
TTITLE2=03
TTITLE3=04
TTITLE4=05
TTITLE5=06
TTITLE6=07
TTITLE7=08
TTITLE8=09
TTITLE9=10
TTITLE10=11
TTITLE11=12
TTITLE12=13
TTITLE13=14
TTITLE14=15
TTITLE15=16
TTITLE16=17
EXTD=YEAR: 1997
EXTT0=
EXTT1=
EXTT2=
EXTT3=
EXTT4=
EXTT5=
EXTT6=
EXTT7=
EXTT8=
EXTT9=
EXTT10=
EXTT11=
EXTT12=
EXTT13=
EXTT14=
EXTT15=
EXTT16=
PLAYORDER=
